<?xml version="1.0" encoding="iso-8859-1"?>
<!-- Generator: Adobe Illustrator 21.0.0, SVG Export Plug-In . SVG Version: 6.00 Build 0)  -->
<svg version="1.1" id="Capa_1" xmlns="http://www.w3.org/2000/svg" xmlns:xlink="http://www.w3.org/1999/xlink" x="0px" y="0px"
	 viewBox="0 0 511.998 511.998" style="enable-background:new 0 0 511.998 511.998;" xml:space="preserve">
<g id="XMLID_1010_">
	<g id="XMLID_1011_">
		<path id="XMLID_1012_" style="fill:#E79732;" d="M180.387,450.335c4.366,30.619,30.681,54.163,62.506,54.163
			c31.825,0,58.14-23.544,62.506-54.163H180.387z"/>
		<path id="XMLID_1013_" style="fill:#DD801B;" d="M266.208,450.335c-3.43,24.038-20.381,43.713-42.907,51.057
			c6.175,2.026,12.752,3.108,19.592,3.108c31.828,0,58.133-23.545,62.5-54.165H266.208z"/>
		<g id="XMLID_1014_">
			<path id="XMLID_1015_" style="fill:#FAAA3C;" d="M242.893,94.901c-24.097,0-43.701-19.603-43.701-43.7S218.797,7.5,242.893,7.5
				s43.701,19.604,43.701,43.701S266.99,94.901,242.893,94.901z M242.893,34.182c-9.384,0-17.018,7.635-17.018,17.018
				s7.635,17.017,17.018,17.017s17.018-7.634,17.018-17.017S252.277,34.182,242.893,34.182z"/>
		</g>
		<path id="XMLID_1018_" style="fill:#F1DD47;" d="M404.269,431.172H81.518c0-15.689,5.966-29.98,15.764-40.728
			c9.371-10.289,14.654-23.641,14.654-37.558V220.552c0-36.16,14.665-68.894,38.359-92.599
			c23.694-23.705,56.439-38.359,92.599-38.359c57.271,0,105.961,36.779,123.742,87.999c4.675,13.459,7.215,27.91,7.215,42.959
			v132.334c0,13.918,5.283,27.269,14.654,37.558c4.899,5.369,8.837,11.634,11.559,18.507
			C402.775,415.835,404.269,423.328,404.269,431.172z"/>
		<path id="XMLID_1019_" style="fill:#EFC40F;" d="M404.269,431.172h-20.567c0-7.845-1.494-15.337-4.205-22.221
			c-2.722-6.873-6.66-13.138-11.559-18.507c-9.371-10.289-14.654-23.641-14.654-37.558V220.552c0-15.049-2.54-29.5-7.215-42.959
			C329.366,129.469,285.372,94.088,232.605,90c3.394-0.267,6.831-0.406,10.289-0.406c57.271,0,105.961,36.779,123.742,87.999
			c4.675,13.459,7.215,27.91,7.215,42.959v132.334c0,13.918,5.283,27.269,14.654,37.558c4.899,5.369,8.837,11.634,11.559,18.507
			C402.775,415.835,404.269,423.328,404.269,431.172z"/>
		<path id="XMLID_1020_" style="fill:#EFC40F;" d="M373.851,220.552v99.643L262.873,431.172H113.067l253.568-253.579
			C371.311,191.052,373.851,205.503,373.851,220.552z"/>
		<rect id="XMLID_1021_" x="111.936" y="242.239" style="fill:#FAAA3C;" width="261.915" height="65.052"/>
		<polygon id="XMLID_1022_" style="fill:#E79732;" points="373.851,242.239 373.851,307.291 236.948,307.291 301.99,242.239 		"/>
		<g id="XMLID_1023_">
			<g id="XMLID_1024_">
				<circle style="fill:#EB5777;" cx="373.543" cy="184.324" r="80.341"/>
			</g>
		</g>
		<path style="fill:#FFEB9B;" d="M416.999,459.829H68.788c-5.895,0-10.673-4.778-10.673-10.673v-23.395
			c0-5.895,4.778-10.673,10.673-10.673h348.211c5.895,0,10.673,4.778,10.673,10.673v23.395
			C427.672,455.05,422.893,459.829,416.999,459.829z"/>
	</g>
	<g id="XMLID_1025_">
		<path id="XMLID_1026_" d="M267.412,51.201c0-13.52-10.999-24.518-24.519-24.518s-24.519,10.999-24.519,24.518
			c0,13.519,10.999,24.518,24.519,24.518S267.412,64.72,267.412,51.201z M233.375,51.201c0-5.248,4.27-9.518,9.519-9.518
			s9.519,4.27,9.519,9.518s-4.27,9.518-9.519,9.518S233.375,56.449,233.375,51.201z"/>
		<path id="XMLID_1029_" d="M461.383,184.324c0-48.436-39.404-87.841-87.84-87.841c-17.3,0-33.445,5.029-47.057,13.699
			c-14.08-10.667-30.09-18.499-47.024-23.142c9.256-9.414,14.632-22.168,14.632-35.84c0-28.232-22.969-51.201-51.2-51.201
			c-28.232,0-51.201,22.969-51.201,51.201c0,13.491,5.441,26.306,14.617,35.745c-17.511,4.768-33.942,12.998-48.611,24.464
			c-3.263,2.551-3.841,7.265-1.29,10.528c2.552,3.265,7.266,3.841,10.528,1.291c21.869-17.094,48.135-26.13,75.957-26.13
			c25.892,0,50.342,7.81,71.205,22.616c-17.446,16.064-28.396,39.081-28.396,64.61c0,18.746,5.906,36.136,15.95,50.416H119.438
			v-14.186c0-27.604,8.912-53.709,25.773-75.493c2.535-3.275,1.936-7.986-1.34-10.521c-3.274-2.534-7.986-1.937-10.521,1.34
			c-18.914,24.436-28.912,53.716-28.912,84.674v21.666c0,0.007-0.001,0.013-0.001,0.019s0.001,0.013,0.001,0.019v65.013
			c0,0.007-0.001,0.013-0.001,0.019s0.001,0.013,0.001,0.019v45.577c0,11.972-4.51,23.516-12.698,32.504
			c-5.869,6.441-10.483,14.051-13.507,22.197h-9.444c-10.021,0-18.173,8.152-18.173,18.173v23.395
			c0,10.021,8.152,18.173,18.173,18.173h38.425c4.143,0,7.5-3.358,7.5-7.5s-3.357-7.5-7.5-7.5H68.788
			c-1.75,0-3.173-1.423-3.173-3.173v-23.395c0-1.75,1.423-3.173,3.173-3.173h348.211c1.75,0,3.173,1.423,3.173,3.173v23.395
			c0,1.75-1.423,3.173-3.173,3.173H139.873c-4.143,0-7.5,3.358-7.5,7.5s3.357,7.5,7.5,7.5h37.335
			c2.453,6.194,5.758,12.009,9.883,17.32c1.479,1.903,3.691,2.9,5.928,2.9c1.608,0,3.228-0.515,4.596-1.577
			c3.271-2.541,3.863-7.253,1.322-10.524c-1.994-2.567-3.746-5.28-5.25-8.119h98.425c-9.517,18.035-28.366,29.669-49.219,29.669
			c-7.16,0-14.149-1.353-20.772-4.021c-3.846-1.548-8.212,0.313-9.76,4.154s0.313,8.211,4.154,9.759
			c8.414,3.39,17.289,5.108,26.378,5.108c29.081,0,55.094-17.825,65.702-44.669h108.404c10.021,0,18.173-8.152,18.173-18.173
			v-23.395c0-10.021-8.152-18.173-18.173-18.173h-9.456c-3.024-8.147-7.623-15.751-13.495-22.196
			c-8.188-8.989-12.698-20.533-12.698-32.504V307.31c0-0.007,0.001-0.013,0.001-0.019s-0.001-0.013-0.001-0.019v-35.458
			C426.141,267.849,461.383,230.128,461.383,184.324z M225.881,83.122c-11.697-6.27-19.188-18.625-19.188-31.921
			c0-19.961,16.24-36.201,36.201-36.201s36.2,16.24,36.2,36.201c0,13.441-7.36,25.625-19.233,31.953
			c-5.612-0.697-11.278-1.057-16.968-1.057C237.157,82.098,231.48,82.443,225.881,83.122z M373.543,111.483
			c40.164,0,72.84,32.676,72.84,72.841c0,40.164-32.676,72.84-72.84,72.84c-40.165,0-72.841-32.676-72.841-72.84
			C300.702,144.159,333.378,111.483,373.543,111.483z M314.987,249.739c13.876,12.434,31.714,20.528,51.363,22.129v27.923H119.438
			v-50.052H314.987z M382.96,395.494c3.302,3.624,6.085,7.717,8.27,12.094H94.549c2.185-4.379,4.978-8.473,8.278-12.095
			c10.712-11.758,16.61-26.889,16.61-42.606v-38.096H366.35v38.096C366.35,368.604,372.248,383.735,382.96,395.494z"/>
		<path id="XMLID_1035_" d="M365.285,166.725l1.024-0.535v41.139h-3.96c-4.143,0-7.5,3.358-7.5,7.5s3.357,7.5,7.5,7.5h22.92
			c4.143,0,7.5-3.358,7.5-7.5s-3.357-7.5-7.5-7.5h-3.96v-53.511c0-2.623-1.37-5.054-3.612-6.414c-2.244-1.36-5.031-1.45-7.357-0.236
			l-11.994,6.258c-3.672,1.916-5.096,6.446-3.18,10.119C357.081,167.217,361.61,168.641,365.285,166.725z"/>
	</g>
</g>
<g>
</g>
<g>
</g>
<g>
</g>
<g>
</g>
<g>
</g>
<g>
</g>
<g>
</g>
<g>
</g>
<g>
</g>
<g>
</g>
<g>
</g>
<g>
</g>
<g>
</g>
<g>
</g>
<g>
</g>
</svg>
